# xmcd
#
# Track frame offsets:
# 150
# 24770
# 54478
# 71938
# 85745
# 92019
# 119519
# 136521
# 155334
# 166887
# 190439
#
# Disc length: 3111 seconds
#
# Revision: 1
# Processed by: cddbd v1.5.2PL0 Copyright (c) Steve Scherf et al.
# Submitted via: inCDius 2.0b9
#
DISCID=870c250b
DTITLE=Flavio Guimaraes - On The Loose
DYEAR=1900
DGENRE=
TTITLE0=Keep it to Yourself
TTITLE1=Berimbau Não é Gaita
TTITLE2=You Was Wrong
TTITLE3=Checkin´on My Baby
TTITLE4=On The Loose
TTITLE5=Baby What You Want Me To Do
TTITLE6=Boogie Pro Rafa
TTITLE7=Jam for Big Walter
TTITLE8=Blowin´the Family´s Jewels
TTITLE9=Rock With Me
TTITLE10=Tributo a William Clarke
EXTD=
EXTT0=
EXTT1=
EXTT2=
EXTT3=
EXTT4=
EXTT5=
EXTT6=
EXTT7=
EXTT8=
EXTT9=
EXTT10=
PLAYORDER=
